#!OML:ASF F:\VICON\USERDATA\INSTALL\rory3\rory3.ASF
:FULLY-SPECIFIED
:DEGREES
1
root 1.1158999999999988 17.9802 -6.0667499999999865 -1.4504699999999988 -1.023990000000002 2.890400000000009
lfemur 2.6832999999999867 -0.902715000000003 -27.49690000000001
ltibia 20.80850000000002
lfoot -17.04830000000001 1.5664200000000015
ltoes 0.2805379999999946
rfemur -31.297699999999963 3.557380000000002 18.356500000000015
rtibia 37.1701
rfoot -9.127840000000003 -15.406599999999983
rtoes 5.125880000000001
lowerback nan -0.0670831999999999 -3.5979799999999953
upperback 0.6748959999999997 -0.48704600000000187 0.6751349999999977
thorax -5.28433 -0.14768600000000187 2.810440000000002
lowerneck -17.0245 -2.90976 -1.8454300000000001
upperneck 20.6427 -3.71639 0.7065380000000001
head 9.36794 -1.79972 0.0671088
lclavicle 1.0013799999999991e-14 -5.168399999999985e-15
lhumerus -22.385800000000007 -2.622240000000005 81.6114
lradius 28.00969999999999
lwrist 6.659059999999998
lhand -26.4771 30.619099999999992
lfingers nan
lthumb 0.08498020000000017 60.598899999999986
rclavicle 1.0013799999999991e-14 -5.168399999999985e-15
rhumerus -29.4102 -19.887100000000004 -79.4474
rradius 24.1699
rwrist 6.599710000000001
rhand -16.2158 nan
rfingers nan
rthumb 9.991919999999999 -10.798500000000004
2
root 1.0579399999999999 17.9398 -5.393760000000048 -1.0978600000000012 -0.5464309999999981 3.3451599999999977
lfemur 5.895350000000029 -0.9038549999999967 -27.94100000000001
ltibia 17.82299999999998
lfoot -16.62360000000001 1.581509999999995
ltoes -3.028110000000001
rfemur -30.77570000000004 6.719190000000002 16.047799999999995
rtibia 25.82539999999998
rfoot -10.206099999999998 -18.28700000000001
rtoes 4.692990000000003
lowerback nan -0.48663299999999954 -4.27116999999999
upperback 0.5619320000000001 -1.1240100000000037 0.7036650000000002
thorax -5.31126 -0.4425589999999989 3.316089999999994
lowerneck -16.6972 -2.7971200000000005 -1.7737600000000004
upperneck 20.389 -3.5164 0.4237660000000005
head 9.20983 -1.73572 -0.008916800000000252
lclavicle -7.355030000000005e-15 1.9878499999999994e-15
lhumerus -21.26879999999999 -3.5148499999999947 81.4277
lradius 28.725400000000008
lwrist 7.76212
lhand -26.8564 29.24699999999999
lfingers nan
lthumb -0.2813769999999993 59.2266
rclavicle -7.355030000000005e-15 1.9878499999999994e-15
rhumerus -29.134499999999996 -19.193699999999996 -79.8866
rradius 24.5401
rwrist 6.23109
rhand -16.477300000000003 nan
rfingers nan
rthumb 9.739710000000002 -11.231100000000001
3
root 0.9958780000000003 17.9149 -4.684569999999985 -0.8750860000000029 0.39930200000000315 3.6258000000000004
lfemur 9.425169999999977 -1.174859999999998 -28.076799999999984
ltibia 15.376699999999989
lfoot -15.718899999999994 1.3726600000000035
ltoes -2.792949999999999
rfemur -29.48149999999996 9.306340000000008 13.67520000000001
rtibia 16.389699999999976
rfoot -13.613899999999997 -18.44069999999998
rtoes 5.020169999999998
lowerback nan -1.020829999999997 -4.534210000000007
upperback 0.9327330000000003 -1.8290100000000034 0.7357379999999991
thorax -4.54094 -0.8119719999999964 3.575620000000004
lowerneck -16.9527 -2.83841 -2.02675
upperneck 20.2676 -3.5306500000000005 0.5623309999999996
head 9.22268 -1.74543 0.07554929999999999
lclavicle 3.776910000000008e-15 1.7095500000000035e-14
lhumerus -19.95249999999998 -4.374549999999989 81.368
lradius 29.506100000000004
lwrist 6.846640000000001
lhand -28.3784 30.405199999999994
lfingers nan
lthumb -1.7513799999999977 60.377700000000004
rclavicle 3.776910000000008e-15 1.7095500000000035e-14
rhumerus -28.8584 -19.1199 -79.9093
rradius 25.2833
rwrist 5.388870000000001
rhand -14.731899999999996 nan
rfingers nan
rthumb 11.423299999999992 -10.368800000000004
4
root 0.9088320000000008 17.8655 -3.9570699999999945 -0.48220600000000036 2.2476600000000055 3.6922000000000037
lfemur 11.63800000000003 -2.46502 -27.561400000000013
ltibia 15.29529999999998
lfoot -15.796300000000002 -0.0441635000000008
ltoes -5.6783100000000015
rfemur -28.91590000000003 11.207399999999986 11.798600000000016
rtibia 13.213600000000028
rfoot -17.330700000000018 -19.26320000000002
rtoes 0.11475199999999885
lowerback nan -1.6983399999999964 -4.8508600000000035
upperback 0.7055089999999998 -2.7478700000000003 0.9932539999999986
thorax -4.561579999999999 -1.2530499999999993 4.142109999999996
lowerneck -16.7618 -2.83776 -2.07679
upperneck 20.4316 -3.47937 0.37401599999999885
head 9.24143 -1.74753 0.027357999999999758
lclavicle -2.45002e-14 1.1927100000000006e-15
lhumerus -19.5835 -5.265229999999993 81.6936
lradius 29.5577
lwrist 6.880299999999998
lhand -29.098999999999997 27.3763
lfingers nan
lthumb -2.4473300000000027 57.342
rclavicle -2.45002e-14 1.1927100000000006e-15
rhumerus -29.1973 -19.583299999999998 -79.2134
rradius 24.8657
rwrist 6.07856
rhand -14.965999999999998 nan
rfingers nan
rthumb 11.197500000000002 -8.638499999999999
5
root 0.8216149999999995 17.8147 -3.21586000000001 -0.8095600000000014 1.2358600000000042 3.4470300000000047
lfemur 13.575099999999978 -3.143159999999999 -27.352400000000006
ltibia 17.056200000000004
lfoot -15.082399999999986 -0.052904900000000255
ltoes -11.390499999999985
rfemur -28.908400000000018 7.612169999999995 14.70019999999999
rtibia 16.919099999999972
rfoot -11.884699999999999 -15.0764
rtoes 1.2930600000000019
lowerback nan -1.3904900000000024 -4.715759999999992
upperback 0.9563039999999998 -2.3203600000000018 1.101879999999999
thorax -4.427039999999999 -1.052529999999998 4.1248800000000045
lowerneck -16.8855 -2.93647 -1.97638
upperneck 20.2897 -3.61809 0.2845770000000012
head 9.21259 -1.81396 -0.038357699999999634
lclavicle 3.672550000000004e-14 -5.56597e-15
lhumerus -19.169200000000014 -5.348610000000006 81.8534
lradius 29.89549999999999
lwrist 6.207250000000003
lhand -29.2835 27.318800000000007
lfingers nan
lthumb -2.6255000000000033 57.28240000000001
rclavicle 3.672550000000004e-14 -5.56597e-15
rhumerus -29.4496 -19.086900000000004 -79.3943
rradius 25.5932
rwrist 4.707259999999997
rhand -15.5251 nan
rfingers nan
rthumb 10.6583 -5.004400000000006
